<svg width="22" height="26" viewBox="0 0 22 26" fill="none" xmlns="http://www.w3.org/2000/svg">
<path d="M5.66838 25.5134C5.15576 25.1724 4.70144 24.751 4.32288 24.2654C3.90646 23.7642 3.52064 23.2384 3.1675 22.6908C2.33882 21.4767 1.68894 20.1499 1.23782 18.751C0.695879 17.126 0.433441 15.5684 0.433441 14.045C0.433441 12.3436 0.801504 10.8583 1.52138 9.61033C2.05501 8.63488 2.83959 7.81972 3.79394 7.24921C4.71882 6.67474 5.78151 6.36037 6.87007 6.33921C7.25113 6.33921 7.66144 6.39446 8.09694 6.50008C8.40975 6.58864 8.79082 6.72839 9.25638 6.90227C9.84869 7.13058 10.1745 7.27033 10.285 7.30446C10.6319 7.43121 10.9236 7.48645 11.1528 7.48645C11.3266 7.48645 11.572 7.43121 11.8507 7.34671C12.0075 7.29146 12.3033 7.19395 12.7266 7.01277C13.1458 6.86002 13.4757 6.72921 13.7381 6.63171C14.1403 6.51308 14.5295 6.40339 14.8764 6.34814C15.2877 6.2833 15.7051 6.26612 16.1204 6.29696C16.8399 6.34399 17.5487 6.49647 18.2239 6.74952C19.3281 7.19396 20.2211 7.88783 20.8857 8.87421C20.6048 9.04735 20.3411 9.24705 20.0984 9.47058C19.5699 9.93905 19.1198 10.489 18.7651 11.0996C18.3014 11.9341 18.061 12.8742 18.0671 13.8288C18.0842 15.0013 18.3848 16.034 18.9771 16.9269C19.4126 17.5887 19.9785 18.1546 20.6403 18.5901C20.9791 18.8184 21.2708 18.9752 21.5503 19.0808C21.4195 19.4871 21.2797 19.8803 21.1148 20.2703C20.7407 21.1449 20.2874 21.9834 19.7604 22.7753C19.2908 23.457 18.9227 23.9648 18.6432 24.3028C18.2077 24.8187 17.7884 25.2128 17.3651 25.4874C16.8996 25.7961 16.3495 25.9611 15.7905 25.9611C15.4119 25.9756 15.0334 25.9298 14.6693 25.8254C14.3564 25.7198 14.0469 25.6052 13.7422 25.4744C13.4254 25.3289 13.0988 25.2059 12.7648 25.1063C11.939 24.8942 11.0732 24.8928 10.2468 25.1023C9.908 25.1998 9.58219 25.3135 9.26044 25.4533C8.80788 25.6434 8.50725 25.771 8.33338 25.8254C7.98644 25.927 7.6265 25.9903 7.2625 26.0115C6.69944 26.0115 6.17456 25.8506 5.65457 25.5248L5.66838 25.5134ZM13.0946 5.5137C12.3585 5.88177 11.6557 6.03858 10.9578 5.98739C10.8481 5.28458 10.9578 4.56552 11.2494 3.77821C11.4978 3.1112 11.8647 2.4946 12.3325 1.95821C12.8265 1.39354 13.426 0.930698 14.0973 0.595643C14.8123 0.22758 15.4939 0.0285176 16.1456 -0.000732422C16.2301 0.735393 16.1456 1.45933 15.875 2.24177C15.6246 2.93344 15.2584 3.57746 14.7919 4.14627C14.3159 4.71171 13.7316 5.17634 13.0735 5.51289L13.0946 5.5137Z" fill="black"/>
</svg>
