<svg width="25" height="24" viewBox="0 0 25 24" fill="none" xmlns="http://www.w3.org/2000/svg">
<path d="M5.62483 11C5.62483 6.58172 9.20625 3 13.6242 3C18.0421 3 21.6235 6.58172 21.6235 11C21.6235 12.15 21.3808 13.2434 20.944 14.2316L21.625 18.9992L17.5396 17.9778C16.3822 18.6287 15.0465 19 13.6242 19M3.62595 16C3.62595 16.7188 3.77758 17.4021 4.0506 18.0198L3.625 20.9995L6.17815 20.3611C6.90143 20.768 7.73615 21 8.62505 21C11.386 21 13.6242 18.7614 13.6242 16C13.6242 13.2386 11.386 11 8.62505 11C5.86412 11 3.62595 13.2386 3.62595 16Z" stroke="#484C52" stroke-width="2" stroke-linecap="round" stroke-linejoin="round"/>
</svg>
