<svg width="25" height="24" viewBox="0 0 25 24" fill="none" xmlns="http://www.w3.org/2000/svg">
<path d="M7.625 16.5L14.625 14.5L16.625 7.5L9.625 9.5L7.625 16.5ZM12.125 13.5C11.7083 13.5 11.3542 13.3542 11.0625 13.0625C10.7708 12.7708 10.625 12.4167 10.625 12C10.625 11.5833 10.7708 11.2292 11.0625 10.9375C11.3542 10.6458 11.7083 10.5 12.125 10.5C12.5417 10.5 12.8958 10.6458 13.1875 10.9375C13.4792 11.2292 13.625 11.5833 13.625 12C13.625 12.4167 13.4792 12.7708 13.1875 13.0625C12.8958 13.3542 12.5417 13.5 12.125 13.5ZM12.125 22C10.7417 22 9.44167 21.7375 8.225 21.2125C7.00833 20.6875 5.95 19.975 5.05 19.075C4.15 18.175 3.4375 17.1167 2.9125 15.9C2.3875 14.6833 2.125 13.3833 2.125 12C2.125 10.6167 2.3875 9.31667 2.9125 8.1C3.4375 6.88333 4.15 5.825 5.05 4.925C5.95 4.025 7.00833 3.3125 8.225 2.7875C9.44167 2.2625 10.7417 2 12.125 2C13.5083 2 14.8083 2.2625 16.025 2.7875C17.2417 3.3125 18.3 4.025 19.2 4.925C20.1 5.825 20.8125 6.88333 21.3375 8.1C21.8625 9.31667 22.125 10.6167 22.125 12C22.125 13.3833 21.8625 14.6833 21.3375 15.9C20.8125 17.1167 20.1 18.175 19.2 19.075C18.3 19.975 17.2417 20.6875 16.025 21.2125C14.8083 21.7375 13.5083 22 12.125 22ZM12.125 20C14.3417 20 16.2292 19.2208 17.7875 17.6625C19.3458 16.1042 20.125 14.2167 20.125 12C20.125 9.78333 19.3458 7.89583 17.7875 6.3375C16.2292 4.77917 14.3417 4 12.125 4C9.90833 4 8.02083 4.77917 6.4625 6.3375C4.90417 7.89583 4.125 9.78333 4.125 12C4.125 14.2167 4.90417 16.1042 6.4625 17.6625C8.02083 19.2208 9.90833 20 12.125 20Z" fill="#5F6368"/>
</svg>
