<svg width="25" height="24" viewBox="0 0 25 24" fill="none" xmlns="http://www.w3.org/2000/svg">
<path d="M6.725 17.1C7.575 16.45 8.525 15.9375 9.575 15.5625C10.625 15.1875 11.725 15 12.875 15C14.025 15 15.125 15.1875 16.175 15.5625C17.225 15.9375 18.175 16.45 19.025 17.1C19.6083 16.4167 20.0625 15.6417 20.3875 14.775C20.7125 13.9083 20.875 12.9833 20.875 12C20.875 9.78333 20.0958 7.89583 18.5375 6.3375C16.9792 4.77917 15.0917 4 12.875 4C10.6583 4 8.77083 4.77917 7.2125 6.3375C5.65417 7.89583 4.875 9.78333 4.875 12C4.875 12.9833 5.0375 13.9083 5.3625 14.775C5.6875 15.6417 6.14167 16.4167 6.725 17.1ZM12.875 13C11.8917 13 11.0625 12.6625 10.3875 11.9875C9.7125 11.3125 9.375 10.4833 9.375 9.5C9.375 8.51667 9.7125 7.6875 10.3875 7.0125C11.0625 6.3375 11.8917 6 12.875 6C13.8583 6 14.6875 6.3375 15.3625 7.0125C16.0375 7.6875 16.375 8.51667 16.375 9.5C16.375 10.4833 16.0375 11.3125 15.3625 11.9875C14.6875 12.6625 13.8583 13 12.875 13ZM12.875 22C11.4917 22 10.1917 21.7375 8.975 21.2125C7.75833 20.6875 6.7 19.975 5.8 19.075C4.9 18.175 4.1875 17.1167 3.6625 15.9C3.1375 14.6833 2.875 13.3833 2.875 12C2.875 10.6167 3.1375 9.31667 3.6625 8.1C4.1875 6.88333 4.9 5.825 5.8 4.925C6.7 4.025 7.75833 3.3125 8.975 2.7875C10.1917 2.2625 11.4917 2 12.875 2C14.2583 2 15.5583 2.2625 16.775 2.7875C17.9917 3.3125 19.05 4.025 19.95 4.925C20.85 5.825 21.5625 6.88333 22.0875 8.1C22.6125 9.31667 22.875 10.6167 22.875 12C22.875 13.3833 22.6125 14.6833 22.0875 15.9C21.5625 17.1167 20.85 18.175 19.95 19.075C19.05 19.975 17.9917 20.6875 16.775 21.2125C15.5583 21.7375 14.2583 22 12.875 22ZM12.875 20C13.7583 20 14.5917 19.8708 15.375 19.6125C16.1583 19.3542 16.875 18.9833 17.525 18.5C16.875 18.0167 16.1583 17.6458 15.375 17.3875C14.5917 17.1292 13.7583 17 12.875 17C11.9917 17 11.1583 17.1292 10.375 17.3875C9.59167 17.6458 8.875 18.0167 8.225 18.5C8.875 18.9833 9.59167 19.3542 10.375 19.6125C11.1583 19.8708 11.9917 20 12.875 20ZM12.875 11C13.3083 11 13.6667 10.8583 13.95 10.575C14.2333 10.2917 14.375 9.93333 14.375 9.5C14.375 9.06667 14.2333 8.70833 13.95 8.425C13.6667 8.14167 13.3083 8 12.875 8C12.4417 8 12.0833 8.14167 11.8 8.425C11.5167 8.70833 11.375 9.06667 11.375 9.5C11.375 9.93333 11.5167 10.2917 11.8 10.575C12.0833 10.8583 12.4417 11 12.875 11Z" fill="#484C52"/>
</svg>
