<svg width="25" height="24" viewBox="0 0 25 24" fill="none" xmlns="http://www.w3.org/2000/svg">
<path d="M14.375 22V18.925L19.9 13.425C20.05 13.275 20.2167 13.1667 20.4 13.1C20.5833 13.0333 20.7667 13 20.95 13C21.15 13 21.3417 13.0375 21.525 13.1125C21.7083 13.1875 21.875 13.3 22.025 13.45L22.95 14.375C23.0833 14.525 23.1875 14.6917 23.2625 14.875C23.3375 15.0583 23.375 15.2417 23.375 15.425C23.375 15.6083 23.3417 15.7958 23.275 15.9875C23.2083 16.1792 23.1 16.35 22.95 16.5L17.45 22H14.375ZM15.875 20.5H16.825L19.85 17.45L19.4 16.975L18.925 16.525L15.875 19.55V20.5ZM6.375 22C5.825 22 5.35417 21.8042 4.9625 21.4125C4.57083 21.0208 4.375 20.55 4.375 20V4C4.375 3.45 4.57083 2.97917 4.9625 2.5875C5.35417 2.19583 5.825 2 6.375 2H14.375L20.375 8V11H18.375V9H13.375V4H6.375V20H12.375V22H6.375ZM19.4 16.975L18.925 16.525L19.85 17.45L19.4 16.975Z" fill="#5F6368"/>
</svg>
