<svg width="21" height="20" viewBox="0 0 21 20" fill="none" xmlns="http://www.w3.org/2000/svg">
<path d="M7.75 20L7.35 16.8C7.13333 16.7167 6.92916 16.6167 6.7375 16.5C6.54583 16.3833 6.35833 16.2583 6.175 16.125L3.2 17.375L0.449997 12.625L3.025 10.675C3.00833 10.5583 3 10.4458 3 10.3375V9.6625C3 9.55417 3.00833 9.44167 3.025 9.325L0.449997 7.375L3.2 2.625L6.175 3.875C6.35833 3.74167 6.55 3.61667 6.75 3.5C6.95 3.38333 7.15 3.28333 7.35 3.2L7.75 0H13.25L13.65 3.2C13.8667 3.28333 14.0708 3.38333 14.2625 3.5C14.4542 3.61667 14.6417 3.74167 14.825 3.875L17.8 2.625L20.55 7.375L17.975 9.325C17.9917 9.44167 18 9.55417 18 9.6625V10.3375C18 10.4458 17.9833 10.5583 17.95 10.675L20.525 12.625L17.775 17.375L14.825 16.125C14.6417 16.2583 14.45 16.3833 14.25 16.5C14.05 16.6167 13.85 16.7167 13.65 16.8L13.25 20H7.75ZM9.5 18H11.475L11.825 15.35C12.3417 15.2167 12.8208 15.0208 13.2625 14.7625C13.7042 14.5042 14.1083 14.1917 14.475 13.825L16.95 14.85L17.925 13.15L15.775 11.525C15.8583 11.2917 15.9167 11.0458 15.95 10.7875C15.9833 10.5292 16 10.2667 16 10C16 9.73333 15.9833 9.47083 15.95 9.2125C15.9167 8.95417 15.8583 8.70833 15.775 8.475L17.925 6.85L16.95 5.15L14.475 6.2C14.1083 5.81667 13.7042 5.49583 13.2625 5.2375C12.8208 4.97917 12.3417 4.78333 11.825 4.65L11.5 2H9.525L9.175 4.65C8.65833 4.78333 8.17916 4.97917 7.7375 5.2375C7.29583 5.49583 6.89166 5.80833 6.525 6.175L4.05 5.15L3.075 6.85L5.225 8.45C5.14166 8.7 5.08333 8.95 5.05 9.2C5.01666 9.45 5 9.71667 5 10C5 10.2667 5.01666 10.525 5.05 10.775C5.08333 11.025 5.14166 11.275 5.225 11.525L3.075 13.15L4.05 14.85L6.525 13.8C6.89166 14.1833 7.29583 14.5042 7.7375 14.7625C8.17916 15.0208 8.65833 15.2167 9.175 15.35L9.5 18ZM10.55 13.5C11.5167 13.5 12.3417 13.1583 13.025 12.475C13.7083 11.7917 14.05 10.9667 14.05 10C14.05 9.03333 13.7083 8.20833 13.025 7.525C12.3417 6.84167 11.5167 6.5 10.55 6.5C9.56666 6.5 8.7375 6.84167 8.0625 7.525C7.3875 8.20833 7.05 9.03333 7.05 10C7.05 10.9667 7.3875 11.7917 8.0625 12.475C8.7375 13.1583 9.56666 13.5 10.55 13.5Z" fill="#C9C9C9"/>
</svg>
